<svg xmlns="http://www.w3.org/2000/svg" width="660.05192" height="207.23047" viewBox="0 0 660.05192 207.23047"><defs><style>.a{fill:#fff;}.b{fill:none;stroke:#fff;stroke-miterlimit:10;stroke-width:41px;}</style></defs><path class="a" d="M447.65723,382.71875v-12.8457a54.96432,54.96432,0,0,1-4.77784,5.4873,33.49054,33.49054,0,0,1-5.78369,4.64453,28.73971,28.73971,0,0,1-7.041,3.209,29.79054,29.79054,0,0,1-8.71729,1.18164q-14.58545,0-22.54785-8.88574-7.96436-8.88282-7.96338-24.47559V292.8623h25.48194v50.002q0,9.03369,4.02343,13.63183,4.02319,4.59669,11.39942,4.59668,7.37549,0,11.65136-4.59668,4.27441-4.59814,4.27491-13.63183v-50.002h25.48144v89.85645Z" transform="translate(-167.64632 -177.5)"/><path class="a" d="M548.57617,382.71875v-9.72363a35.393,35.393,0,0,1-11.23242,8.29883,36.97746,36.97746,0,0,1-15.92578,3.10156,39.83383,39.83383,0,0,1-11.98633-1.76074,28.10283,28.10283,0,0,1-9.80762-5.28028,25.27832,25.27832,0,0,1-6.62207-8.63379,27.21866,27.21866,0,0,1-2.43066-11.81933v-.335a28.186,28.186,0,0,1,2.68262-12.74121,24.45492,24.45492,0,0,1,7.46-8.88477,33.50038,33.50038,0,0,1,11.39941-5.28027,57.04671,57.04671,0,0,1,14.66895-1.76075,62.84546,62.84546,0,0,1,11.98632,1.00586,75.25037,75.25037,0,0,1,9.97461,2.68262V330.0791q0-8.04639-4.86132-12.23828-4.86475-4.188-14.417-4.19043a59.89483,59.89483,0,0,0-12.99218,1.25684,87.60957,87.60957,0,0,0-11.81934,3.60449l-6.37012-19.44629a100.131,100.131,0,0,1,15.42285-5.19727,81.23758,81.23758,0,0,1,19.44629-2.01171q20.9546,0,30.51172,10.22656,9.55518,10.22754,9.55567,28.499v52.13672Zm.50293-36.21094a39.0644,39.0644,0,0,0-7.46-2.43066,40.23646,40.23646,0,0,0-8.80176-.92188q-8.21631,0-12.9082,3.18457a10.45462,10.45462,0,0,0-4.69434,9.22071v.335a9.41208,9.41208,0,0,0,3.85547,8.04687q3.85547,2.85353,10.0586,2.85059,9.05272,0,14.50195-4.35938a13.90685,13.90685,0,0,0,5.44824-11.39941Z" transform="translate(-167.64632 -177.5)"/><path class="a" d="M636.75488,382.80273a40.10668,40.10668,0,0,1-11.23144,1.42481,41.79806,41.79806,0,0,1-10.64551-1.25781,18.94715,18.94715,0,0,1-8.21484-4.44239,21.29235,21.29235,0,0,1-5.36426-8.29785,37.23437,37.23437,0,0,1-1.92774-12.99219V314.65625H588.6416V292.8623h10.72949V269.896h25.48145v22.9663h21.12305v21.79395H624.85254V353.0459q0,8.71875,8.21484,8.71777a25.95727,25.95727,0,0,0,12.57324-3.18555v20.45215A39.60326,39.60326,0,0,1,636.75488,382.80273Z" transform="translate(-167.64632 -177.5)"/><path class="a" d="M717.55762,317.84082q-12.74268,0-20.03321,7.71191-7.292,7.71242-7.292,23.97266v33.19336H664.75V292.8623h25.48242v18.10547A37.37658,37.37658,0,0,1,700.793,296.21484q6.70313-5.53125,18.10547-5.02929v26.65527Z" transform="translate(-167.64632 -177.5)"/><path class="a" d="M824.01074,356.14746a46.36478,46.36478,0,0,1-10.22656,14.83594A48.42029,48.42029,0,0,1,798.36133,381.042a50.27609,50.27609,0,0,1-19.44727,3.68848,50.799,50.799,0,0,1-19.27832-3.60449,47.01533,47.01533,0,0,1-15.33984-9.89063,45.98575,45.98575,0,0,1-10.1416-14.75293,45.00937,45.00937,0,0,1-3.68848-18.18847V337.958a45.03426,45.03426,0,0,1,3.68848-18.18946,46.37956,46.37956,0,0,1,10.22558-14.83593,48.49119,48.49119,0,0,1,15.42383-10.0586A50.25713,50.25713,0,0,1,779.25,291.18555,50.83916,50.83916,0,0,1,798.52832,294.79a47.13589,47.13589,0,0,1,15.33984,9.89062,46.11362,46.11362,0,0,1,10.14258,14.75293,45.07936,45.07936,0,0,1,3.6875,18.18946v.335A45.06248,45.06248,0,0,1,824.01074,356.14746Zm-21.459-18.18945a26.66129,26.66129,0,0,0-1.67578-9.47168,23.80665,23.80665,0,0,0-12.40625-13.32715,22.52551,22.52551,0,0,0-9.55567-2.01172,23.64381,23.64381,0,0,0-9.80664,1.92774,21.68617,21.68617,0,0,0-7.292,5.28027,23.26369,23.26369,0,0,0-4.61035,7.7959,27.81623,27.81623,0,0,0-1.59278,9.47168v.335a26.564,26.564,0,0,0,1.67676,9.47168,24.033,24.033,0,0,0,12.32129,13.32812,22.36834,22.36834,0,0,0,9.63965,2.01172,23.61281,23.61281,0,0,0,9.80664-1.92773,21.61684,21.61684,0,0,0,7.293-5.28125,23.25994,23.25994,0,0,0,4.61035-7.79493,27.87891,27.87891,0,0,0,1.5918-9.47167Z" transform="translate(-167.64632 -177.5)"/><path class="a" d="M370.22146,377.62c0,3.92466-4.30376,7.10987-9.61243,7.10987H266.87257V364.23453c1.34606.07591,2.71121.11376,4.07625.11376A82.34549,82.34549,0,0,0,324.434,344.70613h8.1716l33.84291,27.264,2.2562,1.80119A5.89085,5.89085,0,0,1,370.22146,377.62Z" transform="translate(-167.64632 -177.5)"/><path class="b" d="M354.32121,281.09692a82.81177,82.81177,0,0,1-18.79209,52.65986,84.49354,84.49354,0,0,1-10.52057,10.692,82.77676,82.77676,0,0,1-53.7653,19.745c-1.37219,0-2.7445-.038-4.09761-.11434a83.09,83.09,0,1,1,87.17557-82.98258Z" transform="translate(-167.64632 -177.5)"/></svg>