<svg xmlns="http://www.w3.org/2000/svg" xmlns:xlink="http://www.w3.org/1999/xlink" width="660.0519" height="207.2305" viewBox="0 0 660.0519 207.2305"><defs><style>.a{fill:url(#a);}.b{fill:url(#f);}.c{fill:none;stroke-miterlimit:10;stroke-width:41px;stroke:url(#g);}</style><linearGradient id="a" x1="390.8262" y1="327.3132" x2="827.6982" y2="327.3132" gradientUnits="userSpaceOnUse"><stop offset="0" stop-color="#fd60af"/><stop offset="0.8015" stop-color="#a45ee3"/><stop offset="1" stop-color="#554dd4"/></linearGradient><linearGradient id="f" x1="266.8726" y1="364.718" x2="370.2215" y2="364.718" xlink:href="#a"/><linearGradient id="g" x1="167.6463" y1="281.0969" x2="374.8212" y2="281.0969" xlink:href="#a"/></defs><path class="a" d="M447.6572,382.7188V369.873a54.97,54.97,0,0,1-4.7778,5.4874,33.494,33.494,0,0,1-5.7837,4.6445,28.7428,28.7428,0,0,1-7.041,3.209,29.792,29.792,0,0,1-8.7173,1.1816q-14.5854,0-22.5478-8.8857-7.9644-8.8829-7.9634-24.4756V292.8623h25.4819v50.002q0,9.0336,4.0234,13.6318,4.0233,4.5966,11.3995,4.5967t11.6513-4.5967q4.2744-4.5981,4.2749-13.6318v-50.002h25.4815v89.8565Z" transform="translate(-167.6463 -177.5)"/><path class="a" d="M548.5762,382.7188v-9.7237a35.3945,35.3945,0,0,1-11.2324,8.2988,36.9761,36.9761,0,0,1-15.9258,3.1016,39.8347,39.8347,0,0,1-11.9864-1.7607,28.103,28.103,0,0,1-9.8076-5.28,25.278,25.278,0,0,1-6.622-8.6338,27.2186,27.2186,0,0,1-2.4307-11.8193v-.335a28.1855,28.1855,0,0,1,2.6826-12.7412,24.4547,24.4547,0,0,1,7.46-8.8848,33.5005,33.5005,0,0,1,11.3994-5.28,57.0432,57.0432,0,0,1,14.6689-1.7608,62.8477,62.8477,0,0,1,11.9864,1.0059,75.2529,75.2529,0,0,1,9.9746,2.6826v-1.5088q0-8.0464-4.8614-12.2383-4.8647-4.188-14.417-4.19a59.8933,59.8933,0,0,0-12.9921,1.2568,87.6094,87.6094,0,0,0-11.8194,3.6045l-6.37-19.4463a100.1349,100.1349,0,0,1,15.4229-5.1972,81.2323,81.2323,0,0,1,19.4462-2.0118q20.9547,0,30.5118,10.2266,9.5552,10.2276,9.5556,28.499v52.1368Zm.5029-36.211a39.0723,39.0723,0,0,0-7.46-2.4307,40.2409,40.2409,0,0,0-8.8017-.9218q-8.2164,0-12.9082,3.1845a10.4546,10.4546,0,0,0-4.6944,9.2207v.335a9.4122,9.4122,0,0,0,3.8555,8.0469q3.8554,2.8534,10.0586,2.8506,9.0528,0,14.502-4.3594a13.9071,13.9071,0,0,0,5.4482-11.3994Z" transform="translate(-167.6463 -177.5)"/><path class="a" d="M636.7549,382.8027a40.1053,40.1053,0,0,1-11.2315,1.4248,41.797,41.797,0,0,1-10.6455-1.2578,18.9472,18.9472,0,0,1-8.2148-4.4424,21.2927,21.2927,0,0,1-5.3643-8.2978,37.2353,37.2353,0,0,1-1.9277-12.9922V314.6562H588.6416V292.8623h10.7295V269.896h25.4814v22.9663h21.1231v21.7939H624.8525v38.39q0,8.7188,8.2149,8.7178a25.9575,25.9575,0,0,0,12.5732-3.1856V379.03A39.602,39.602,0,0,1,636.7549,382.8027Z" transform="translate(-167.6463 -177.5)"/><path class="a" d="M717.5576,317.8408q-12.7427,0-20.0332,7.7119t-7.292,23.9727v33.1934H664.75V292.8623h25.4824v18.1055a37.3777,37.3777,0,0,1,10.5606-14.753q6.703-5.5312,18.1054-5.0293v26.6553Z" transform="translate(-167.6463 -177.5)"/><path class="a" d="M824.0107,356.1475a46.3638,46.3638,0,0,1-10.2265,14.8359,48.42,48.42,0,0,1-15.4229,10.0586,50.2764,50.2764,0,0,1-19.4472,3.6885,50.8,50.8,0,0,1-19.2784-3.6045,47.0161,47.0161,0,0,1-15.34-9.8906,45.9869,45.9869,0,0,1-10.1416-14.753,45.0086,45.0086,0,0,1-3.6885-18.1885v-.3359a45.0332,45.0332,0,0,1,3.6885-18.1894,46.3792,46.3792,0,0,1,10.2256-14.836,48.4917,48.4917,0,0,1,15.4238-10.0586,50.2579,50.2579,0,0,1,19.4463-3.6885,50.8405,50.8405,0,0,1,19.2783,3.6045,47.1351,47.1351,0,0,1,15.34,9.8907,46.1133,46.1133,0,0,1,10.1425,14.7529,45.078,45.078,0,0,1,3.6875,18.1894v.335A45.0616,45.0616,0,0,1,824.0107,356.1475ZM802.5518,337.958a26.6623,26.6623,0,0,0-1.6758-9.4717A23.8062,23.8062,0,0,0,788.47,315.1592a22.5251,22.5251,0,0,0-9.5556-2.0117,23.6437,23.6437,0,0,0-9.8067,1.9277,21.6855,21.6855,0,0,0-7.292,5.28,23.2629,23.2629,0,0,0-4.61,7.7959,27.8154,27.8154,0,0,0-1.5928,9.4716v.335a26.5631,26.5631,0,0,0,1.6768,9.4717A24.0324,24.0324,0,0,0,769.61,360.7578a22.3684,22.3684,0,0,0,9.64,2.0117,23.6131,23.6131,0,0,0,9.8066-1.9277,21.6157,21.6157,0,0,0,7.293-5.2813,23.26,23.26,0,0,0,4.61-7.7949,27.88,27.88,0,0,0,1.5918-9.4717Z" transform="translate(-167.6463 -177.5)"/><path class="b" d="M370.2215,377.62c0,3.9247-4.3038,7.11-9.6125,7.11H266.8726V364.2345c1.346.0759,2.7112.1138,4.0762.1138a82.3455,82.3455,0,0,0,53.4852-19.6422h8.1716l33.8429,27.264,2.2562,1.8012A5.8909,5.8909,0,0,1,370.2215,377.62Z" transform="translate(-167.6463 -177.5)"/><path class="c" d="M354.3212,281.0969a82.8118,82.8118,0,0,1-18.7921,52.66,84.4961,84.4961,0,0,1-10.5205,10.692,82.7771,82.7771,0,0,1-53.7654,19.745c-1.3721,0-2.7444-.038-4.0976-.1143a83.09,83.09,0,1,1,87.1756-82.9826Z" transform="translate(-167.6463 -177.5)"/></svg>