<svg xmlns="http://www.w3.org/2000/svg" xmlns:xlink="http://www.w3.org/1999/xlink" width="1920" zoomAndPan="magnify" viewBox="0 0 1440 809.999993" height="1080" preserveAspectRatio="xMidYMid meet" version="1.0"><defs><g><g id="id1"/></g></defs><g fill="rgb(64.309692%, 36.859131%, 89.019775%)" fill-opacity="1"><g transform="translate(359.610517, 474.749996)"><g><path d="M 103.203125 23 L 89.59375 0.59375 C 86.53125 1.132812 83 1.40625 79 1.40625 C 65.664062 1.40625 53.429688 -1.726562 42.296875 -8 C 31.160156 -14.269531 22.328125 -22.9375 15.796875 -34 C 9.265625 -45.0625 6 -57.53125 6 -71.40625 C 6 -85.269531 9.265625 -97.734375 15.796875 -108.796875 C 22.328125 -119.867188 31.160156 -128.503906 42.296875 -134.703125 C 53.429688 -140.898438 65.664062 -144 79 -144 C 92.332031 -144 104.53125 -140.898438 115.59375 -134.703125 C 126.664062 -128.503906 135.429688 -119.867188 141.890625 -108.796875 C 148.359375 -97.734375 151.59375 -85.269531 151.59375 -71.40625 C 151.59375 -60.070312 149.394531 -49.632812 145 -40.09375 C 140.601562 -30.5625 134.535156 -22.460938 126.796875 -15.796875 L 155.59375 23 Z M 51.203125 -71.40625 C 51.203125 -61.800781 53.597656 -54.164062 58.390625 -48.5 C 63.191406 -42.832031 70.0625 -40 79 -40 C 87.800781 -40 94.597656 -42.832031 99.390625 -48.5 C 104.191406 -54.164062 106.59375 -61.800781 106.59375 -71.40625 C 106.59375 -81.132812 104.191406 -88.832031 99.390625 -94.5 C 94.597656 -100.164062 87.800781 -103 79 -103 C 70.0625 -103 63.191406 -100.164062 58.390625 -94.5 C 53.597656 -88.832031 51.203125 -81.132812 51.203125 -71.40625 Z M 51.203125 -71.40625 "/></g></g></g><g fill="rgb(64.309692%, 36.859131%, 89.019775%)" fill-opacity="1"><g transform="translate(513.206301, 474.749996)"><g><path d="M 129.40625 -112.796875 L 129.40625 0 L 85 0 L 85 -17.203125 C 81.53125 -11.867188 76.894531 -7.535156 71.09375 -4.203125 C 65.300781 -0.867188 58.40625 0.796875 50.40625 0.796875 C 37.46875 0.796875 27.363281 -3.535156 20.09375 -12.203125 C 12.832031 -20.867188 9.203125 -32.601562 9.203125 -47.40625 L 9.203125 -112.796875 L 53.40625 -112.796875 L 53.40625 -53 C 53.40625 -47.664062 54.835938 -43.429688 57.703125 -40.296875 C 60.566406 -37.160156 64.398438 -35.59375 69.203125 -35.59375 C 74.128906 -35.59375 77.992188 -37.160156 80.796875 -40.296875 C 83.597656 -43.429688 85 -47.664062 85 -53 L 85 -112.796875 Z M 129.40625 -112.796875 "/></g></g></g><g fill="rgb(64.309692%, 36.859131%, 89.019775%)" fill-opacity="1"><g transform="translate(648.602572, 474.749996)"><g><path d="M 4 -56.40625 C 4 -68.269531 6.03125 -78.566406 10.09375 -87.296875 C 14.164062 -96.035156 19.734375 -102.703125 26.796875 -107.296875 C 33.867188 -111.898438 41.800781 -114.203125 50.59375 -114.203125 C 57.925781 -114.203125 64.257812 -112.703125 69.59375 -109.703125 C 74.925781 -106.703125 78.992188 -102.601562 81.796875 -97.40625 L 81.796875 -112.796875 L 126 -112.796875 L 126 0 L 81.796875 0 L 81.796875 -15.40625 C 78.992188 -10.195312 74.925781 -6.09375 69.59375 -3.09375 C 64.257812 -0.09375 57.925781 1.40625 50.59375 1.40625 C 41.800781 1.40625 33.867188 -0.894531 26.796875 -5.5 C 19.734375 -10.101562 14.164062 -16.769531 10.09375 -25.5 C 6.03125 -34.226562 4 -44.53125 4 -56.40625 Z M 81.796875 -56.40625 C 81.796875 -62.40625 80.257812 -67.070312 77.1875 -70.40625 C 74.125 -73.738281 70.195312 -75.40625 65.40625 -75.40625 C 60.601562 -75.40625 56.664062 -73.738281 53.59375 -70.40625 C 50.53125 -67.070312 49 -62.40625 49 -56.40625 C 49 -50.40625 50.53125 -45.738281 53.59375 -42.40625 C 56.664062 -39.070312 60.601562 -37.40625 65.40625 -37.40625 C 70.195312 -37.40625 74.125 -39.070312 77.1875 -42.40625 C 80.257812 -45.738281 81.796875 -50.40625 81.796875 -56.40625 Z M 81.796875 -56.40625 "/></g></g></g><g fill="rgb(64.309692%, 36.859131%, 89.019775%)" fill-opacity="1"><g transform="translate(780.59895, 474.749996)"><g><path d="M 80.203125 -37.796875 L 80.203125 0 L 63.40625 0 C 32.46875 0 17 -15.398438 17 -46.203125 L 17 -75.796875 L 3 -75.796875 L 3 -112.796875 L 17 -112.796875 L 17 -140 L 61.40625 -140 L 61.40625 -112.796875 L 79.796875 -112.796875 L 79.796875 -75.796875 L 61.40625 -75.796875 L 61.40625 -45.40625 C 61.40625 -42.738281 62.035156 -40.800781 63.296875 -39.59375 C 64.566406 -38.394531 66.664062 -37.796875 69.59375 -37.796875 Z M 80.203125 -37.796875 "/></g></g></g><g fill="rgb(64.309692%, 36.859131%, 89.019775%)" fill-opacity="1"><g transform="translate(863.796578, 474.749996)"><g><path d="M 54.40625 -92 C 58.9375 -98.53125 64.46875 -103.757812 71 -107.6875 C 77.53125 -111.625 84.332031 -113.59375 91.40625 -113.59375 L 91.40625 -66.203125 L 78.796875 -66.203125 C 70.398438 -66.203125 64.234375 -64.734375 60.296875 -61.796875 C 56.367188 -58.867188 54.40625 -53.671875 54.40625 -46.203125 L 54.40625 0 L 10 0 L 10 -112.796875 L 54.40625 -112.796875 Z M 54.40625 -92 "/></g></g></g><g fill="rgb(64.309692%, 36.859131%, 89.019775%)" fill-opacity="1"><g transform="translate(953.194111, 474.749996)"><g><path d="M 63.59375 1.40625 C 52.257812 1.40625 42.0625 -0.925781 33 -5.59375 C 23.9375 -10.257812 16.835938 -16.957031 11.703125 -25.6875 C 6.566406 -34.425781 4 -44.664062 4 -56.40625 C 4 -68.132812 6.566406 -78.363281 11.703125 -87.09375 C 16.835938 -95.832031 23.9375 -102.535156 33 -107.203125 C 42.0625 -111.867188 52.257812 -114.203125 63.59375 -114.203125 C 74.925781 -114.203125 85.125 -111.867188 94.1875 -107.203125 C 103.257812 -102.535156 110.363281 -95.832031 115.5 -87.09375 C 120.632812 -78.363281 123.203125 -68.132812 123.203125 -56.40625 C 123.203125 -44.664062 120.632812 -34.425781 115.5 -25.6875 C 110.363281 -16.957031 103.257812 -10.257812 94.1875 -5.59375 C 85.125 -0.925781 74.925781 1.40625 63.59375 1.40625 Z M 63.59375 -37 C 67.726562 -37 71.195312 -38.628906 74 -41.890625 C 76.800781 -45.160156 78.203125 -50 78.203125 -56.40625 C 78.203125 -62.800781 76.800781 -67.628906 74 -70.890625 C 71.195312 -74.160156 67.726562 -75.796875 63.59375 -75.796875 C 59.46875 -75.796875 56.003906 -74.160156 53.203125 -70.890625 C 50.398438 -67.628906 49 -62.800781 49 -56.40625 C 49 -50 50.363281 -45.160156 53.09375 -41.890625 C 55.832031 -38.628906 59.332031 -37 63.59375 -37 Z M 63.59375 -37 "/></g></g></g></svg>